# xmcd
#
# Track frame offsets:
#	150
#	25989
#	40706
#	54390
#	67217
#	81575
#	97605
#	111378
#	121314
#	135435
#	155115
#	170826
#	191195
#	204101
#
# Disc length: 2954 seconds
#
# Revision: 1
# Processed by: cddbd v1.5.2PL0 Copyright (c) Steve Scherf et al.
# Submitted via: audiograbber 1.83.01
#
DISCID=c50b880e
DTITLE=Luz amoi - es is advent
DYEAR=2012
DGENRE=Chorus
TTITLE0=Oh Heiland reiss die Himmel auf
TTITLE1=Maria durch ein Dornwald ging
TTITLE2=In Dulci Jubilo
TTITLE3=Es wird scho glei dumpa
TTITLE4=Des bin ich froh
TTITLE5=Es ist ein Ros entsprungen
TTITLE6=Kommet, ihr Hirten
TTITLE7=Im Woid is so staad
TTITLE8=Tochter Zion
TTITLE9=Aba Heidschi Bumbeidschi
TTITLE10=Vom Himmel hoch
TTITLE11=Still, still, still
TTITLE12=Adeste Fidelis
TTITLE13=Andachsjodler
EXTD=
EXTT0=
EXTT1=
EXTT2=
EXTT3=
EXTT4=
EXTT5=
EXTT6=
EXTT7=
EXTT8=
EXTT9=
EXTT10=
EXTT11=
EXTT12=
EXTT13=
PLAYORDER=
